<svg id="Sofort_Überweisung" data-name="Sofort Überweisung" xmlns="http://www.w3.org/2000/svg" viewBox="0 0 35.172 11.025"><defs><style>.cls-1{fill:#ed7f01;}.cls-2{fill:#3d3d3d;}.cls-3{fill:#3c3c3c;}.cls-4{fill:#fdfdfd;}</style></defs><title>sofort_ueberweisung</title><path class="cls-1" d="M10.122,12.614a5.55,5.55,0,0,0-1.407,1.4.182.182,0,0,1-.176.08q-1.036,0-2.072,0a1.025,1.025,0,0,0-.426.07.41.41,0,0,0-.264.384.385.385,0,0,0,.295.34c.214.068.434.12.645.194a1.156,1.156,0,0,1,.879.907,2.1,2.1,0,0,1-.163,1.07A2.584,2.584,0,0,1,5.241,18.8a5.973,5.973,0,0,1-.928.059H.471c-.026-.052.007-.091.021-.13.159-.447.325-.892.479-1.34a.169.169,0,0,1,.195-.131q1.7.005,3.393,0a2.877,2.877,0,0,0,.627-.047.436.436,0,0,0,.364-.388.321.321,0,0,0-.242-.366c-.192-.069-.39-.123-.587-.181a1.882,1.882,0,0,1-.653-.326A.93.93,0,0,1,3.7,14.97a3.81,3.81,0,0,1,.732-1.609,1.959,1.959,0,0,1,1.4-.718,7.865,7.865,0,0,1,.795-.028h3.493Z" transform="translate(-0.445 -12.523)"/><path class="cls-1" d="M23.294,18.861c.12-.335.233-.654.347-.972q.927-2.571,1.853-5.143a.167.167,0,0,1,.191-.132c.655.005,1.311,0,1.966,0a3.194,3.194,0,0,1,1.135.175,1.121,1.121,0,0,1,.754,1.332,2.6,2.6,0,0,1-1.681,1.994c-.146.063-.161.1-.089.243a9.786,9.786,0,0,1,.641,1.929c.041.154.079.31.119.464.017.067.019.109-.076.109q-.908-.006-1.816,0c-.09,0-.1-.046-.119-.116q-.22-.948-.446-1.9c-.011-.048-.025-.1-.039-.148-.06.039-.063.1-.082.157-.233.622-.466,1.244-.693,1.868a.17.17,0,0,1-.191.136c-.54-.007-1.081,0-1.621,0Zm2.954-3.447c.123,0,.218,0,.312,0a1.137,1.137,0,0,0,1.2-.971.365.365,0,0,0-.324-.51,3.2,3.2,0,0,0-.568-.028.078.078,0,0,0-.09.056C26.608,14.439,26.432,14.915,26.248,15.414Z" transform="translate(-0.445 -12.523)"/><path class="cls-1" d="M20.081,18.958a2.3,2.3,0,0,1-.7-.1,1.586,1.586,0,0,1-1.141-1.643,4.328,4.328,0,0,1,.352-1.6,5.328,5.328,0,0,1,1.691-2.359,3.186,3.186,0,0,1,2.632-.667,1.51,1.51,0,0,1,1.265,1.482,4.352,4.352,0,0,1-.388,1.877A5.868,5.868,0,0,1,22.5,18,3.288,3.288,0,0,1,20.081,18.958Zm.51-1.418a.92.92,0,0,0,.674-.277,2.083,2.083,0,0,0,.378-.537,9.056,9.056,0,0,0,.673-1.774A2,2,0,0,0,22.4,14.4a.417.417,0,0,0-.45-.466,1.028,1.028,0,0,0-.839.39,3.211,3.211,0,0,0-.576.941,5.68,5.68,0,0,0-.487,1.644C20.007,17.329,20.191,17.54,20.592,17.539Z" transform="translate(-0.445 -12.523)"/><path class="cls-1" d="M9.906,18.957a2.034,2.034,0,0,1-1.325-.391A1.617,1.617,0,0,1,8,17.034a5.445,5.445,0,0,1,2.057-3.8,3.1,3.1,0,0,1,2.591-.656,1.513,1.513,0,0,1,1.284,1.5A4.446,4.446,0,0,1,13.524,16a6.146,6.146,0,0,1-1.071,1.792A3.284,3.284,0,0,1,9.906,18.957Zm.434-1.418a.921.921,0,0,0,.687-.283,2.138,2.138,0,0,0,.362-.512,9.146,9.146,0,0,0,.627-1.584,3.291,3.291,0,0,0,.138-.658q.055-.569-.516-.564a.843.843,0,0,0-.163.018,1.305,1.305,0,0,0-.782.589,4.752,4.752,0,0,0-.594,1.2,4.9,4.9,0,0,0-.3,1.142C9.757,17.319,9.938,17.538,10.34,17.539Z" transform="translate(-0.445 -12.523)"/><path class="cls-1" d="M20.433,12.615a5.981,5.981,0,0,0-1.14.917,3.448,3.448,0,0,0-.382.462.2.2,0,0,1-.2.1c-.58,0-1.161,0-1.741,0a.441.441,0,0,0-.518.369c-.061.174-.117.351-.185.522-.038.1-.017.12.083.119.465,0,.931,0,1.4,0,.12,0,.131.03.091.134-.132.35-.261.7-.381,1.057a.149.149,0,0,1-.171.119c-.455-.005-.911,0-1.366-.007a.193.193,0,0,0-.224.152c-.253.726-.52,1.447-.776,2.172a.169.169,0,0,1-.192.135c-.535-.006-1.071,0-1.606,0-.093,0-.135,0-.093-.119.572-1.572,1.128-3.149,1.711-4.716a2.064,2.064,0,0,1,2.044-1.409C17.987,12.609,19.188,12.615,20.433,12.615Z" transform="translate(-0.445 -12.523)"/><path class="cls-1" d="M29.455,18.861c.2-.559.394-1.1.589-1.638l1.068-2.96c.06-.166.059-.166-.123-.166h-.841c-.061,0-.12.011-.113-.088a1.577,1.577,0,0,0-.554-1.383h6.135c-.143.4-.283.792-.425,1.186-.1.285-.1.285-.413.285-.581,0-1.161,0-1.742,0a.179.179,0,0,0-.2.139c-.531,1.486-1.069,2.97-1.6,4.457a.22.22,0,0,1-.253.174C30.481,18.855,29.981,18.861,29.455,18.861Z" transform="translate(-0.445 -12.523)"/><path class="cls-2" d="M13.154,22.794c.056-.024.067-.083.094-.128.409-.681.824-1.359,1.22-2.048a.452.452,0,0,1,.446-.253c.342,0,.351,0,.312.33-.076.655-.131,1.312-.235,1.964-.005.034-.029.089.025.1s.059-.046.078-.078q.621-1.052,1.239-2.106a.536.536,0,0,1,.613-.191c.047.022.058.051.036.095-.032.062-.063.125-.1.184-.54.871-1.083,1.739-1.62,2.612a.4.4,0,0,1-.38.215c-.13,0-.26,0-.39,0s-.165-.056-.15-.182c.067-.556.126-1.113.187-1.67.007-.059.008-.119.013-.186-.076.012-.085.074-.111.117-.34.565-.681,1.13-1.013,1.7a.391.391,0,0,1-.386.227c-.125-.007-.25,0-.375,0s-.179-.056-.165-.187c.047-.428.087-.856.131-1.284.046-.453.1-.905.14-1.358.024-.244.059-.281.3-.291.4-.015.4-.016.341.38-.092.654-.174,1.308-.26,1.963,0,.029-.018.059.008.085-.02-.012-.023,0-.024.016s.006.013.009.019Z" transform="translate(-0.445 -12.523)"/><path class="cls-3" d="M27.952,21.2c-.066.013-.062.057-.072.086-.235.658-.473,1.315-.7,1.977a.277.277,0,0,1-.315.227c-.045,0-.09,0-.135,0-.172-.01-.186-.029-.129-.188q.473-1.318.947-2.635a.343.343,0,0,1,.4-.283c.1,0,.2,0,.3,0,.176.006.245.061.275.235q.113.657.217,1.317c.032.2.054.4.086.644.027-.059.042-.085.052-.113q.328-.924.656-1.848c.079-.222.1-.236.33-.247.055,0,.11,0,.165.006.1.005.142.037.1.152-.328.9-.649,1.8-.975,2.7a.336.336,0,0,1-.366.248c-.475.005-.488-.008-.558-.472C28.141,22.413,28.016,21.817,27.952,21.2Z" transform="translate(-0.445 -12.523)"/><path class="cls-3" d="M5.789,21.813a.485.485,0,0,1,.321.668,1.383,1.383,0,0,1-1.213.974,7.661,7.661,0,0,1-1.169.028c-.139,0-.171-.069-.113-.231.18-.5.362-1,.543-1.507l.38-1.056c.1-.273.137-.305.423-.3a6.2,6.2,0,0,1,1.033.032.489.489,0,0,1,.42.724C6.32,21.421,6.185,21.567,5.789,21.813ZM4.319,23c.182,0,.342.006.5,0a.641.641,0,0,0,.624-.468.276.276,0,0,0-.265-.4c-.154-.014-.309-.008-.464-.014a.1.1,0,0,0-.109.076C4.514,22.46,4.419,22.721,4.319,23ZM4.8,21.655c.148,0,.281,0,.415,0a.6.6,0,0,0,.554-.485c.033-.175-.031-.276-.2-.3-.134-.016-.27-.011-.4-.017a.087.087,0,0,0-.1.07C4.982,21.165,4.894,21.4,4.8,21.655Z" transform="translate(-0.445 -12.523)"/><path class="cls-2" d="M32.254,22.2c-.181,0-.345,0-.509,0-.105,0-.138-.037-.105-.135.017-.052.035-.1.052-.156a.245.245,0,0,1,.277-.191c.285.013.57,0,.855,0,.162,0,.2.052.15.2-.147.419-.3.836-.452,1.253a.278.278,0,0,1-.17.18,2.627,2.627,0,0,1-1.415.135.832.832,0,0,1-.718-.99A2.442,2.442,0,0,1,32.1,20.376a1.975,1.975,0,0,1,1.051.053c.271.093.311.185.212.448-.018.047-.04.091-.061.137-.047.1-.105.126-.21.057a1.265,1.265,0,0,0-1.6.129,1.674,1.674,0,0,0-.583,1.224.528.528,0,0,0,.521.579,1.539,1.539,0,0,0,.27,0,.364.364,0,0,0,.384-.3A4.292,4.292,0,0,1,32.254,22.2Z" transform="translate(-0.445 -12.523)"/><path class="cls-3" d="M11.1,22.039a.655.655,0,0,1,.225.522c.012.24.025.479.04.719.009.144-.053.205-.2.213-.473.024-.471.028-.494-.437a3.873,3.873,0,0,0-.035-.568.355.355,0,0,0-.482-.266c-.05.02-.051.07-.065.11-.119.328-.242.655-.354.986a.23.23,0,0,1-.229.173c-.46.035-.469.027-.315-.4q.437-1.218.876-2.436c.082-.229.138-.266.387-.266l.84,0a1.442,1.442,0,0,1,.165.008.557.557,0,0,1,.519.833A1.278,1.278,0,0,1,11.1,22.039Zm-.8-.3c.145,0,.27.006.394,0a.666.666,0,0,0,.639-.549.229.229,0,0,0-.191-.3,2.251,2.251,0,0,0-.477-.024c-.054,0-.064.036-.078.073Z" transform="translate(-0.445 -12.523)"/><path class="cls-2" d="M24.372,23.548c-.117-.013-.227-.018-.335-.038a.649.649,0,0,1-.571-.826,3.71,3.71,0,0,1,.192-.614c.182-.5.366-1,.54-1.508a.232.232,0,0,1,.222-.183c.135-.012.3-.055.393.03s-.024.233-.063.346c-.171.5-.351.988-.529,1.481a1.436,1.436,0,0,0-.092.362.352.352,0,0,0,.321.411.859.859,0,0,0,.927-.515c.107-.224.183-.464.269-.7.151-.412.3-.825.446-1.24a.214.214,0,0,1,.211-.174c.01,0,.02,0,.03-.005.4-.053.443,0,.309.367-.191.531-.378,1.063-.574,1.592A1.7,1.7,0,0,1,24.752,23.5C24.626,23.527,24.495,23.533,24.372,23.548Z" transform="translate(-0.445 -12.523)"/><path class="cls-2" d="M1.353,23.547c-.109-.012-.22-.018-.328-.038a.65.65,0,0,1-.561-.845,6.074,6.074,0,0,1,.282-.852c.147-.414.3-.825.443-1.241a.243.243,0,0,1,.246-.194l.03,0c.389-.04.423,0,.293.36l-.55,1.521a1.333,1.333,0,0,0-.085.349.352.352,0,0,0,.327.406.88.88,0,0,0,.951-.574c.1-.238.182-.486.271-.73.136-.375.278-.749.4-1.128a.265.265,0,0,1,.256-.2c.4-.045.437,0,.307.36-.2.559-.393,1.121-.608,1.675A1.727,1.727,0,0,1,1.353,23.547Z" transform="translate(-0.445 -12.523)"/><path class="cls-3" d="M17.481,23.485c-.235,0-.47,0-.705,0-.171,0-.217-.055-.162-.209q.481-1.345.969-2.688a.282.282,0,0,1,.3-.2c.47,0,.94,0,1.41,0,.128,0,.147.049.112.153-.011.033-.02.067-.032.1-.083.229-.1.239-.345.239-.27,0-.54,0-.81,0-.08,0-.127.015-.154.1-.059.185-.126.368-.2.549-.034.085-.022.113.074.111.245,0,.49,0,.735,0,.126,0,.148.051.112.156-.018.052-.036.1-.054.155a.227.227,0,0,1-.257.174c-.24-.011-.48,0-.72,0-.067,0-.108.011-.133.086-.077.232-.162.461-.249.689-.033.085,0,.1.077.1.3,0,.6,0,.9,0,.122,0,.172.032.123.156-.024.06-.042.122-.065.183a.216.216,0,0,1-.238.159C17.942,23.478,17.711,23.485,17.481,23.485Z" transform="translate(-0.445 -12.523)"/><path class="cls-3" d="M7.411,23.485H6.751c-.231,0-.261-.041-.184-.256.288-.8.582-1.6.866-2.409.169-.479.176-.434.614-.433H9.2c.157,0,.173.021.129.174-.011.038-.029.075-.04.113A.256.256,0,0,1,9,20.881c-.279-.015-.56,0-.84-.006-.087,0-.136.02-.163.109-.056.181-.118.361-.19.536-.043.1-.007.117.086.115.24,0,.48,0,.72,0,.122,0,.155.044.113.154-.021.056-.042.112-.06.169a.216.216,0,0,1-.249.162c-.235-.009-.47,0-.705,0a.14.14,0,0,0-.161.114c-.07.213-.143.426-.227.634-.048.118-.008.134.1.133.29,0,.581,0,.871,0,.133,0,.16.048.121.161-.021.061-.042.123-.066.183a.219.219,0,0,1-.241.155C7.872,23.478,7.642,23.485,7.411,23.485Z" transform="translate(-0.445 -12.523)"/><path class="cls-2" d="M21.286,23.541a1.249,1.249,0,0,1-.6-.155.175.175,0,0,1-.093-.238c.011-.027.017-.058.026-.086.108-.312.12-.315.4-.157a.878.878,0,0,0,.765.074.562.562,0,0,0,.3-.242.289.289,0,0,0-.092-.45c-.128-.086-.269-.153-.4-.237a.591.591,0,0,1-.274-.76A1.415,1.415,0,0,1,23.1,20.4c.232.078.257.136.175.366-.012.033-.024.066-.038.1-.08.191-.1.2-.279.092a.763.763,0,0,0-.6-.111.486.486,0,0,0-.348.281.254.254,0,0,0,.084.345c.119.082.249.148.374.22a.641.641,0,0,1,.314.931A1.57,1.57,0,0,1,21.286,23.541Z" transform="translate(-0.445 -12.523)"/><path class="cls-2" d="M19.418,23.5c-.27-.017-.323.024-.209-.285.317-.856.621-1.717.931-2.576.088-.244.1-.255.364-.265.336-.013.355.01.244.317l-.909,2.52C19.738,23.486,19.722,23.5,19.418,23.5Z" transform="translate(-0.445 -12.523)"/><path class="cls-2" d="M2.31,19.52c.23,0,.277.068.2.285a.418.418,0,0,1-.539.3c-.1-.022-.129-.074-.118-.17A.416.416,0,0,1,2.31,19.52Z" transform="translate(-0.445 -12.523)"/><path class="cls-2" d="M3.118,20.113c-.225,0-.276-.076-.2-.289a.423.423,0,0,1,.54-.3.133.133,0,0,1,.121.157A.437.437,0,0,1,3.118,20.113Z" transform="translate(-0.445 -12.523)"/><path class="cls-4" d="M13.154,22.794l-.012.038c0-.006-.009-.013-.009-.019s0-.028.024-.016Z" transform="translate(-0.445 -12.523)"/></svg>