<?xml version="1.0" encoding="utf-8"?>
<!-- Generator: Adobe Illustrator 21.1.0, SVG Export Plug-In . SVG Version: 6.00 Build 0)  -->
<svg version="1.1" id="Layer_1" xmlns="http://www.w3.org/2000/svg" xmlns:xlink="http://www.w3.org/1999/xlink" x="0px" y="0px"
	 viewBox="0 0 1822.9 1900.9" style="enable-background:new 0 0 1822.9 1900.9;" xml:space="preserve">
<style type="text/css">
	.st0{fill:#E3E4E3;}
	.st1{fill:#6699CC;}
	.st2{fill:#9A9999;}
	.st3{fill:#CDCCCB;}
	.st4{fill:#FFCE41;}
	.st5{fill:#808080;}
	.st6{fill:#44729A;}
	.st7{fill:#FF0000;}
	.st8{fill:#FFFFFF;}
</style>
<title>kalender_fewo</title>
<path class="st0" d="M1090.6,558.1v525.3c0,22.6,2.3,40-19,40H207c-20.6,0-27.8-12.8-27.8-34.4c0-174.7,0-352-0.3-526.4l457.2-370.5
	L1090.6,558.1z"/>
<g id="Haustür">
	<path class="st1" d="M326.1,602.9h234.3c12,0,21.8,10.3,21.8,23.1l0,0l0,0v450.8H304.4V626C304.4,613.3,314.1,602.9,326.1,602.9
		C326.1,602.9,326.1,602.9,326.1,602.9z"/>
	<path class="st2" d="M594.2,1089.7H292.9V626c0-19.8,15.1-35.8,33.8-35.8h234.3c18.7,0,33.8,16,33.8,35.8L594.2,1089.7z
		 M315.8,1065.4h254.9V626c0-6-4.6-10.9-10.3-10.9l0,0H326.1c-5.7,0-10.3,4.9-10.3,10.9l0,0l0,0V1065.4z"/>
</g>
<g id="Fundament">
	<path class="st3" d="M152.5,1051.4h975.6c3.5,0,6.3,3,6.3,6.7v42.5c0,3.7-2.8,6.7-6.3,6.7H152.5c-3.5,0-6.3-3-6.3-6.7V1058
		C146.3,1054.3,149.1,1051.4,152.5,1051.4z"/>
</g>
<g id="Fundament_2">
	<path class="st3" d="M126.2,1100.6h1026c3.5,0,6.3,3,6.3,6.7v42.5c0,3.7-2.8,6.7-6.3,6.7h-1026c-3.5,0-6.3-3-6.3-6.7v-42.5
		C119.9,1103.6,122.7,1100.6,126.2,1100.6z"/>
</g>
<g id="Fenster">
	<path class="st4" d="M733.4,654h213.1c12,0,21.8,10.3,21.8,23.1v225.8c0,12.7-9.7,23.1-21.8,23.1H733.4c-12,0-21.8-10.3-21.8-23.1
		V677.1C711.6,664.3,721.3,654,733.4,654z"/>
	<path class="st2" d="M946.5,938.3H733.9c-18.7,0-33.8-16-33.8-35.8V677.1c0-19.8,15.1-35.8,33.8-35.8h212.6
		c18.7,0,33.8,16,33.8,35.8v225.4C980.3,922.3,965.2,938.3,946.5,938.3z M734,666.1c-5.7,0-10.3,4.9-10.3,10.9l0,0l0,0v225.4
		c0,6,4.6,10.9,10.3,10.9l0,0h212.5c5.7,0,10.3-4.9,10.3-10.9l0,0l0,0V677.1c0-6-4.6-10.9-10.3-10.9l0,0H734L734,666.1z"/>
</g>
<g id="Türgriff">
	<path class="st4" d="M476.8,846h55c4.1,0,7.4,3.5,7.4,7.9l0,0c0,4.4-3.3,7.9-7.4,7.9h-55c-4.1,0-7.4-3.5-7.4-7.9l0,0
		C469.3,849.5,472.6,846,476.8,846z M537.4,841.1c6.6,1,11.1,7.5,10.2,14.4c-0.9,7-7,11.8-13.6,10.8c-6.1-0.9-10.5-6.6-10.3-13.1
		C524.6,846,530.6,840.7,537.4,841.1L537.4,841.1z"/>
</g>
<g id="Fensterrahmen_waagerecht">
	<rect x="730" y="786.4" class="st2" width="220" height="7.7"/>
</g>
<g id="Fensterrahmen_senkrecht">
	<rect x="833" y="686.5" class="st2" width="6.9" height="206.6"/>
</g>
<g id="Stufe">
	<path class="st5" d="M282.6,1051.4h321.9c3.5,0,6.3,3.5,6.3,7.8l0,0v49.1c0,1.6-1,2.8-2.3,2.8H278c-1.3,0-2.3-1.3-2.3-2.8v-49.1
		c0-4.3,2.8-7.8,6.3-7.8H282.6z"/>
</g>
<g id="Stufe_2">
	<path class="st5" d="M251.6,1102.4h385.5c3.5,0,6.3,3,6.3,6.7v0l0,0v41.9c0,1.3-1,2.4-2.3,2.4h0H247.1c-1.3,0-2.3-1.1-2.3-2.4l0,0
		v-41.9c0-3.7,2.8-6.7,6.3-6.7h0H251.6z"/>
</g>
<g id="Dach_links_3">
	<path class="st6" d="M1233,590.1l-14.5,20.8c-18.2,25.6-52.6,30.8-76.8,11.5l-501-400.5L139,623.1c-24.4,19-58.5,14-76.8-11.5
		l-14.5-20.8c-17.9-25.8-13.2-62.1,10.9-81.5L602.8,67.1c10.5-8.6,23-19.1,35.2-19.1h0.7c13.5,0,27.4,9.1,39.3,18.4L1221.8,505
		C1246.2,524.3,1250.9,564.6,1233,590.1z"/>
</g>
<path class="st7" d="M1169.3,768.1l-61.1,23.1c-32.6,12.4-48.1,46.7-34.6,76.6c0,0,0,0,0,0l15.7,34.7
	c-30.6,20.8-57.6,45.6-80.3,73.6l-37.9-14.4c-32.6-12.4-70,1.8-83.6,31.7c0,0,0,0,0,0l-25.4,56c-13.5,29.9,2,64.2,34.6,76.6
	c0,0,0,0,0,0l56.1,21.3c12.9,4.2,27-1.9,31.6-13.7c4.3-11-1.3-23.3-12.9-28.2l-56.1-21.3c-7.5-2.9-11.1-10.8-8-17.7l25.4-56
	c3-6.9,11.6-10.2,19.1-7.4c0.1,0,0.1,0,0.2,0.1l56.1,21.3c10.9,4.2,23.5,0.7,30-8.3c25-34.6,57.3-64.2,95-87.1
	c9.8-6,13.6-17.5,9.2-27.5l-23.2-51.4c-3.1-6.9,0.5-14.8,8-17.7l61.1-23.1c7.5-2.9,16.1,0.3,19.2,7.2c0,0.1,0,0.1,0.1,0.2l23.2,51.4
	c4.4,10.1,16.1,15.7,27.6,13.4c44.3-8.1,89.9-8.1,134.2,0c11.5,2,23-3.6,27.6-13.4l23.2-51.4c3.1-6.9,11.7-10.2,19.3-7.3l61.1,23.3
	c7.5,2.8,11.1,10.6,8.1,17.5c0,0.1,0,0.1-0.1,0.2l-23.2,51.4c-4.6,10-0.8,21.5,9,27.5c37.7,22.9,70,52.5,95,87.1
	c6.6,9,19.1,12.5,30,8.4l56.1-21.3c7.5-2.9,16.1,0.3,19.2,7.2c0,0.1,0,0.1,0.1,0.2l25.2,56c3.1,6.8-0.4,14.7-7.8,17.6
	c-0.1,0-0.1,0-0.2,0.1l-56.1,21.3c-10.9,4.1-17,14.8-14.7,25.3c8.9,40.6,8.9,82.4,0,123c-2.2,10.5,3.9,21.1,14.7,25.3l56.1,21.3
	c7.5,2.9,11.1,10.8,8,17.7l-25.4,56c-3.1,6.9-11.7,10.2-19.3,7.3l-56.1-21.3c-10.9-4.2-23.5-0.7-30,8.3c-25,34.6-57.3,64.2-95,87.1
	c-9.8,6-13.6,17.5-9.2,27.5l23.2,51.4c3.1,6.8-0.4,14.7-7.8,17.6c-0.1,0-0.1,0-0.2,0.1l-61.1,23.1c-7.5,2.9-16.1-0.3-19.2-7.2
	c0-0.1,0-0.1-0.1-0.2l-23.2-51.4c-5.8-11.4-20.5-16.3-32.8-11c-11.6,4.9-17.2,17.2-12.9,28.2l23.2,51.4
	c6.5,14.4,18.9,25.8,34.6,31.7c7.7,2.9,16,4.5,24.4,4.5c8.4,0,16.7-1.6,24.4-4.5l61.1-23.1c32.6-12.4,48.1-46.7,34.6-76.6
	c0,0,0,0,0,0l-15.7-34.7c30.6-20.8,57.6-45.6,80.3-73.6l37.9,14.4c32.6,12.4,70-1.8,83.6-31.7c0,0,0,0,0,0l25.4-56
	c13.5-29.9-2-64.2-34.6-76.6c0,0,0,0,0,0l-37.9-14.4c5.5-34.5,5.5-69.5,0-104l37.9-14.4c32.6-12.4,48.1-46.7,34.6-76.6c0,0,0,0,0,0
	l-25.2-56c-13.5-29.9-50.9-44.1-83.6-31.7c0,0,0,0,0,0l-37.9,14.4c-22.6-28-49.5-52.8-80-73.6l15.7-34.7c13.5-29.9-2-64.2-34.6-76.6
	c0,0,0,0,0,0l-61.1-23.3c-32.6-12.4-70,1.8-83.6,31.7c0,0,0,0,0,0l-15.7,34.7c-37.6-5-75.8-5-113.4,0l-15.7-34.7
	c-13.5-29.9-50.9-44.1-83.6-31.7c0,0,0,0,0,0L1169.3,768.1z"/>
<path class="st7" d="M1556.8,1160.1c-0.7-101-90.7-182.7-200.7-182.7h-1.5c-111,0.7-200.3,83.7-199.5,185.4c0,0,0,0,0,0
	c0.2,12.4,11.2,22.4,24.7,22.4h0.2c13.5,0,24.4-10,24.4-22.3c0-0.2,0-0.3,0-0.5c-0.6-76.7,66.8-139.3,150.4-139.9h1
	c83.7,2.3,149.5,66.4,147,143.1c-2.4,73.1-66.2,132-146,134.7c-13.5,0-24.4,10-24.4,22.3c0,0.2,0,0.3,0,0.5
	c0.2,12.4,11.2,22.4,24.7,22.4h0.2C1468.1,1344.6,1557.4,1261.7,1556.8,1160.1z"/>
<path class="st8" d="M908.4,1873.8h48.1c29.5,0,53.4-21.9,53.4-48.9l0,0v-22.7c23.9-5.9,46.9-14.7,68.4-26.1l17.4,15.9
	c10,9.2,23.5,14.4,37.7,14.4c14.2,0.1,27.8-5.1,37.7-14.4l33.9-31.1c10-9.1,15.7-21.6,15.7-34.5c0.1-13-5.6-25.5-15.7-34.5
	l-17.4-15.9c12.5-19.7,22-40.7,28.5-62.7h24.7c29.5,0,53.4-21.9,53.4-48.9v0v-44.1c0-27-23.9-48.9-53.4-48.9h0H1216
	c-6.5-21.9-16-43-28.5-62.7l17.4-15.9c10-9.1,15.7-21.6,15.7-34.5c0.1-13-5.6-25.5-15.7-34.5l-33.9-31.1
	c-10-9.2-23.5-14.4-37.7-14.4c-14.2-0.1-27.8,5.1-37.7,14.4l-17.4,15.9c-21.4-11.4-44.4-20.2-68.4-26.1v-22.7
	c0-27-23.9-48.9-53.4-48.9h0h-48.1c-29.5,0-53.4,21.9-53.4,48.9v0v22.7c-23.9,5.9-46.9,14.7-68.4,26.1l-17.4-15.9
	c-10-9.2-23.5-14.4-37.7-14.4c-14.2-0.1-27.8,5.1-37.7,14.4l-33.9,31.1c-20.8,19.1-20.8,50,0,69.1l17.4,15.9
	c-12.5,19.7-22,40.7-28.5,62.7h-24.7c-29.5,0-53.4,21.9-53.4,48.9v0v44.1c0,27,23.9,48.9,53.4,48.9h0h24.7c6.5,21.9,16,43,28.5,62.7
	l-17.4,15.9c-20.8,19.1-20.8,50,0,69.1l33.9,31.1c10,9.2,23.5,14.4,37.7,14.4c14.2,0.1,27.8-5.1,37.7-14.4l17.4-15.9
	c21.4,11.4,44.4,20.2,68.4,26.1v22.7C855.2,1851.8,879,1873.6,908.4,1873.8z M796.8,1728.9c-4-2.5-8.8-3.8-13.6-3.9
	c-6.5,0-12.8,2.3-17.4,6.6l-31.2,28.6c-1.3,1.4-3.5,1.5-5,0.4c-0.1-0.1-0.3-0.2-0.4-0.4l-33.9-31.1c-1.5-1.4-1.5-3.6,0-5l31.2-28.6
	c8.4-7.6,9.7-19.6,3.1-28.6c-17.9-24.3-30.3-51.7-36.5-80.5c-2.3-10.6-12.4-18.2-24.2-18.3h-44.2c-2.2,0-3.9-1.6-3.9-3.6v0v-44.1
	c0-2,1.8-3.6,3.9-3.6h0h44.2c11.8,0,22-7.6,24.2-18.3c6.2-28.8,18.6-56.2,36.5-80.5c6.5-9,5.2-20.9-3.1-28.6l-31.2-28.6
	c-1.5-1.4-1.5-3.6,0-5l33.9-31.1c1.3-1.4,3.5-1.5,5-0.4c0.1,0.1,0.3,0.2,0.4,0.4l31.2,29.1c8.3,7.7,21.4,8.9,31.2,2.8
	c26.6-16.4,56.4-27.8,87.8-33.5c11.5-2.1,19.9-11.4,20-22.2v-40.5c0-2,1.8-3.6,3.9-3.6h0h48.1c2.2,0,3.9,1.6,3.9,3.6v0v40.5
	c0,10.8,8.3,20.2,20,22.2c31.4,5.7,61.3,17.1,87.8,33.5c9.8,5.9,22.8,4.8,31.2-2.8l31.2-28.6c1.3-1.4,3.5-1.5,5-0.4
	c0.1,0.1,0.3,0.2,0.4,0.4l33.9,31.1c1.5,1.2,1.7,3.2,0.4,4.6c-0.1,0.1-0.3,0.3-0.4,0.4l-31.2,28.6c-8.4,7.6-9.7,19.6-3.1,28.6
	c17.9,24.3,30.3,51.7,36.5,80.5c2.3,10.6,12.4,18.2,24.2,18.3h44.2c2.2,0,3.9,1.6,3.9,3.6v0v44.1c0,2-1.8,3.6-3.9,3.6h0h-44.2
	c-11.8,0-22,7.6-24.2,18.3c-6.2,28.8-18.6,56.2-36.5,80.5c-6.5,9-5.2,20.9,3.1,28.6l31.2,28.6c1.5,1.2,1.7,3.2,0.4,4.6
	c-0.1,0.1-0.3,0.3-0.4,0.4l-33.9,31.1c-1.3,1.4-3.5,1.5-5,0.4c-0.1-0.1-0.3-0.2-0.4-0.4l-31.2-28.6c-8.3-7.7-21.4-8.9-31.2-2.8
	c-26.6,16.4-56.4,27.8-87.8,33.5c-11.5,2.1-19.9,11.4-20,22.2v40.5c0,2-1.8,3.6-3.9,3.6h0h-48.3c-2.2,0-3.9-1.6-3.9-3.6l0,0v-40.5
	c0-10.8-8.3-20.2-20-22.2C853.3,1756.6,823.5,1745.2,796.8,1728.9L796.8,1728.9z"/>
</svg>
