<?xml version="1.0" encoding="iso-8859-1"?>
<!-- Generator: Adobe Illustrator 19.0.0, SVG Export Plug-In . SVG Version: 6.00 Build 0)  -->
<svg version="1.1" id="Layer_1" xmlns="http://www.w3.org/2000/svg" xmlns:xlink="http://www.w3.org/1999/xlink" x="0px" y="0px"
	 viewBox="0 0 512 512" style="enable-background:new 0 0 512 512;" xml:space="preserve">
<rect y="127.866" style="fill:#EFF4F7;" width="512" height="379.871"/>
<g>
	<rect x="231.226" y="160.898" style="fill:#49B2D6;" width="49.548" height="49.548"/>
	<rect x="297.29" y="160.898" style="fill:#49B2D6;" width="49.548" height="49.548"/>
	<rect x="363.355" y="160.898" style="fill:#49B2D6;" width="49.548" height="49.548"/>
	<rect x="429.419" y="160.898" style="fill:#49B2D6;" width="49.548" height="49.548"/>
	<rect x="231.226" y="226.963" style="fill:#49B2D6;" width="49.548" height="49.548"/>
	<rect x="165.161" y="226.963" style="fill:#49B2D6;" width="49.548" height="49.548"/>
</g>
<g>
	<rect x="99.097" y="226.963" style="fill:#F4608A;" width="49.548" height="49.548"/>
	<rect x="33.032" y="226.963" style="fill:#F4608A;" width="49.548" height="49.548"/>
</g>
<g>
	<rect x="297.29" y="226.963" style="fill:#49B2D6;" width="49.548" height="49.548"/>
	<rect x="363.355" y="226.963" style="fill:#49B2D6;" width="49.548" height="49.548"/>
	<rect x="429.419" y="226.963" style="fill:#49B2D6;" width="49.548" height="49.548"/>
	<rect x="231.226" y="293.027" style="fill:#49B2D6;" width="49.548" height="49.548"/>
</g>
<g>
	<rect x="165.161" y="293.027" style="fill:#F4608A;" width="49.548" height="49.548"/>
	<rect x="99.097" y="293.027" style="fill:#F4608A;" width="49.548" height="49.548"/>
	<rect x="33.032" y="293.027" style="fill:#F4608A;" width="49.548" height="49.548"/>
</g>
<g>
	<rect x="231.226" y="359.092" style="fill:#7ED0ED;" width="49.548" height="49.548"/>
	<rect x="165.161" y="359.092" style="fill:#7ED0ED;" width="49.548" height="49.548"/>
</g>
<g>
	<rect x="99.097" y="359.092" style="fill:#49B2D6;" width="49.548" height="49.548"/>
	<rect x="33.032" y="359.092" style="fill:#49B2D6;" width="49.548" height="49.548"/>
</g>
<g>
	<rect x="165.161" y="425.189" style="fill:#7ED0ED;" width="49.548" height="49.548"/>
	<rect x="99.097" y="425.189" style="fill:#7ED0ED;" width="49.548" height="49.548"/>
	<rect x="33.032" y="425.189" style="fill:#7ED0ED;" width="49.548" height="49.548"/>
</g>
<g>
	<rect x="49.548" y="177.414" style="fill:#474545;" width="16.516" height="16.516"/>
	<rect x="115.613" y="177.414" style="fill:#474545;" width="16.516" height="16.516"/>
	<rect x="181.677" y="177.414" style="fill:#474545;" width="16.516" height="16.516"/>
	<rect x="247.742" y="441.705" style="fill:#474545;" width="16.516" height="16.516"/>
	<rect y="45.285" style="fill:#474545;" width="512" height="82.581"/>
</g>
<circle style="fill:#F4608A;" cx="404.645" cy="400.415" r="107.355"/>
<polygon style="fill:#FFFFFF;" points="396.387,445.091 357.516,406.22 369.193,394.543 396.387,421.737 448.355,369.769 
	460.032,381.446 "/>
<g>
	<rect x="33.032" y="78.317" style="fill:#2D2829;" width="445.935" height="16.516"/>
	<path style="fill:#2D2829;" d="M99.097,78.317H82.581V28.769c0-2.205-0.859-4.278-2.42-5.838c-3.122-3.122-8.555-3.122-11.677,0
		c-1.561,1.561-2.42,3.634-2.42,5.838v16.516H49.548V28.769c0-6.615,2.577-12.841,7.259-17.515c9.356-9.365,25.674-9.365,35.031,0
		c4.682,4.674,7.259,10.892,7.259,17.515V78.317z"/>
	<path style="fill:#2D2829;" d="M462.452,78.317h-16.516V28.769c0-2.205-0.859-4.278-2.428-5.847c-3.113-3.113-8.547-3.113-11.66,0
		c-1.569,1.569-2.428,3.642-2.428,5.847v16.516h-16.516V28.769c0-6.606,2.577-12.833,7.251-17.515
		c9.356-9.365,25.691-9.365,35.047,0c4.674,4.682,7.251,10.901,7.251,17.515V78.317z"/>
</g>
<g>
</g>
<g>
</g>
<g>
</g>
<g>
</g>
<g>
</g>
<g>
</g>
<g>
</g>
<g>
</g>
<g>
</g>
<g>
</g>
<g>
</g>
<g>
</g>
<g>
</g>
<g>
</g>
<g>
</g>
</svg>
