<?xml version="1.0" encoding="utf-8"?>
<!-- Generator: Adobe Illustrator 20.0.0, SVG Export Plug-In . SVG Version: 6.00 Build 0)  -->
<svg version="1.1" id="Layer_1" xmlns="http://www.w3.org/2000/svg" xmlns:xlink="http://www.w3.org/1999/xlink" x="0px" y="0px"
	 viewBox="0 0 1822.9 1900.9" style="enable-background:new 0 0 1822.9 1900.9;" xml:space="preserve">
<style type="text/css">
	.st0{fill:#E3E4E3;}
	.st1{fill:#6699CC;}
	.st2{fill:#9A9999;}
	.st3{fill:#CDCCCB;}
	.st4{fill:#FFCE41;}
	.st5{fill:#808080;}
	.st6{fill:#44729A;}
</style>
<title>kalender_fewo</title>
<path class="st0" d="M1546.5,760.4V1494c0,31.6,3.3,55.9-27.2,55.9H280.6c-29.5,0-39.8-17.9-39.8-48c0-244,0-491.6-0.4-735.2
	l655-517.4L1546.5,760.4z"/>
<g id="Haustür">
	<path class="st1" d="M451.2,823h335.7c17.2,0,31.2,14.4,31.2,32.3l0,0l0,0v629.6h-398V855.2C420.1,837.5,434,823,451.2,823
		L451.2,823z"/>
	<path class="st2" d="M835.3,1502.8H403.7V855.2c0-27.7,21.6-50,48.4-50h335.7c26.8,0,48.4,22.3,48.4,50L835.3,1502.8z
		 M436.5,1468.9h365.2V855.2c0-8.4-6.6-15.2-14.8-15.2l0,0H451.2c-8.2,0-14.8,6.8-14.8,15.2l0,0l0,0L436.5,1468.9L436.5,1468.9z"/>
</g>
<g id="Fundament">
	<path class="st3" d="M202.5,1449.3h1397.7c5,0,9,4.2,9,9.4v59.4c0,5.2-4,9.4-9,9.4H202.5c-5,0-9-4.2-9-9.4v-59.5
		C193.6,1453.4,197.7,1449.3,202.5,1449.3z"/>
</g>
<g id="Fundament_2">
	<path class="st3" d="M164.9,1518h1469.9c5,0,9,4.2,9,9.4v59.4c0,5.2-4,9.4-9,9.4H164.9c-5,0-9-4.2-9-9.4v-59.4
		C155.8,1522.2,159.8,1518,164.9,1518z"/>
</g>
<g id="Fenster">
	<path class="st4" d="M1034.8,894.3H1340c17.2,0,31.2,14.4,31.2,32.3v315.3c0,17.7-13.9,32.3-31.2,32.3h-305.3
		c-17.2,0-31.2-14.4-31.2-32.3V926.6C1003.5,908.7,1017.4,894.3,1034.8,894.3z"/>
	<path class="st2" d="M1340,1291.4h-304.6c-26.8,0-48.4-22.3-48.4-50V926.6c0-27.7,21.6-50,48.4-50H1340c26.8,0,48.4,22.3,48.4,50
		v314.8C1388.5,1269,1366.8,1291.4,1340,1291.4z M1035.6,911.2c-8.2,0-14.8,6.8-14.8,15.2l0,0l0,0v314.8c0,8.4,6.6,15.2,14.8,15.2
		l0,0H1340c8.2,0,14.8-6.8,14.8-15.2l0,0l0,0V926.6c0-8.4-6.6-15.2-14.8-15.2l0,0L1035.6,911.2L1035.6,911.2z"/>
</g>
<g id="Türgriff">
	<path class="st4" d="M667.1,1162.5h78.8c5.9,0,10.6,4.9,10.6,11l0,0c0,6.1-4.7,11-10.6,11h-78.8c-5.9,0-10.6-4.9-10.6-11l0,0
		C656.4,1167.4,661.1,1162.5,667.1,1162.5z M754,1155.6c9.5,1.4,15.9,10.5,14.6,20.1c-1.3,9.8-10,16.5-19.5,15.1
		c-8.7-1.3-15-9.2-14.8-18.3C735.6,1162.5,744.2,1155.1,754,1155.6L754,1155.6z"/>
</g>
<g id="Fensterrahmen_waagerecht">
	<rect x="1029.9" y="1079.2" class="st2" width="315.2" height="10.8"/>
</g>
<g id="Fensterrahmen_senkrecht">
	<rect x="1177.4" y="939.7" class="st2" width="9.9" height="288.5"/>
</g>
<g id="Stufe">
	<path class="st5" d="M388.9,1449.3h461.2c5,0,9,4.9,9,10.9l0,0v68.6c0,2.2-1.4,3.9-3.3,3.9H382.3c-1.9,0-3.3-1.8-3.3-3.9v-68.6
		c0-6,4-10.9,9-10.9H388.9z"/>
</g>
<g id="Stufe_2">
	<path class="st5" d="M344.5,1520.5h552.3c5,0,9,4.2,9,9.4l0,0l0,0v58.5c0,1.8-1.4,3.4-3.3,3.4l0,0H338.1c-1.9,0-3.3-1.5-3.3-3.4
		l0,0v-58.5c0-5.2,4-9.4,9-9.4l0,0H344.5z"/>
</g>
<g id="Dach_links_3">
	<path class="st6" d="M1750.5,805.1l-20.8,29c-26.1,35.8-75.4,43-110,16.1L901.9,290.9L183.2,851.2c-35,26.5-83.8,19.6-110-16.1
		l-20.8-29C26.7,770,33.5,719.3,68,692.2L847.6,74.7c15-12,33-26.7,50.4-26.7h1c19.3,0,39.3,12.7,56.3,25.7l779.1,612.5
		C1769.4,713.2,1776.1,769.5,1750.5,805.1z"/>
</g>
</svg>
