<?xml version="1.0" encoding="utf-8"?>
<!-- Generator: Adobe Illustrator 21.1.0, SVG Export Plug-In . SVG Version: 6.00 Build 0)  -->
<svg version="1.1" id="Layer_1" xmlns="http://www.w3.org/2000/svg" xmlns:xlink="http://www.w3.org/1999/xlink" x="0px" y="0px"
	 viewBox="0 0 1822.9 1900.9" style="enable-background:new 0 0 1822.9 1900.9;" xml:space="preserve">
<style type="text/css">
	.st0{fill:#E3E4E3;}
	.st1{fill:#6699CC;}
	.st2{fill:#9A9999;}
	.st3{fill:#CDCCCB;}
	.st4{fill:#FFCE41;}
	.st5{fill:#808080;}
	.st6{fill:#44729A;}
	.st7{fill:#FFFFFF;}
	.st8{fill:#7E7F7F;}
	.st9{fill:#262B38;}
	.st10{fill:#AFB6BB;}
	.st11{fill:#839594;}
	.st12{fill:none;stroke:#1081E0;stroke-width:1.6;stroke-linecap:round;stroke-miterlimit:10;}
	.st13{fill:#070707;}
	.st14{fill:#EBBA16;}
	.st15{fill:#EFCE4A;}
</style>
<title>kalender_fewo</title>
<path class="st0" d="M1090.6,558.1v525.3c0,22.6,2.3,40-19,40H207c-20.6,0-27.8-12.8-27.8-34.4c0-174.7,0-352-0.3-526.4l457.2-370.5
	L1090.6,558.1z"/>
<g id="Haustür">
	<path class="st1" d="M326.1,602.9h234.3c12,0,21.8,10.3,21.8,23.1l0,0l0,0v450.8H304.4V626C304.4,613.3,314.1,602.9,326.1,602.9
		C326.1,602.9,326.1,602.9,326.1,602.9z"/>
	<path class="st2" d="M594.2,1089.7H292.9V626c0-19.8,15.1-35.8,33.8-35.8h234.3c18.7,0,33.8,16,33.8,35.8L594.2,1089.7z
		 M315.8,1065.4h254.9V626c0-6-4.6-10.9-10.3-10.9l0,0H326.1c-5.7,0-10.3,4.9-10.3,10.9l0,0l0,0V1065.4z"/>
</g>
<g id="Fundament">
	<path class="st3" d="M152.5,1051.4h975.6c3.5,0,6.3,3,6.3,6.7v42.5c0,3.7-2.8,6.7-6.3,6.7H152.5c-3.5,0-6.3-3-6.3-6.7V1058
		C146.3,1054.3,149.1,1051.4,152.5,1051.4z"/>
</g>
<g id="Fundament_2">
	<path class="st3" d="M126.2,1100.6h1026c3.5,0,6.3,3,6.3,6.7v42.5c0,3.7-2.8,6.7-6.3,6.7h-1026c-3.5,0-6.3-3-6.3-6.7v-42.5
		C119.9,1103.6,122.7,1100.6,126.2,1100.6z"/>
</g>
<g id="Fenster">
	<path class="st4" d="M733.4,654h213.1c12,0,21.8,10.3,21.8,23.1v225.8c0,12.7-9.7,23.1-21.8,23.1H733.4c-12,0-21.8-10.3-21.8-23.1
		V677.1C711.6,664.3,721.3,654,733.4,654z"/>
	<path class="st2" d="M946.5,938.3H733.9c-18.7,0-33.8-16-33.8-35.8V677.1c0-19.8,15.1-35.8,33.8-35.8h212.6
		c18.7,0,33.8,16,33.8,35.8v225.4C980.3,922.3,965.2,938.3,946.5,938.3z M734,666.1c-5.7,0-10.3,4.9-10.3,10.9l0,0l0,0v225.4
		c0,6,4.6,10.9,10.3,10.9l0,0h212.5c5.7,0,10.3-4.9,10.3-10.9l0,0l0,0V677.1c0-6-4.6-10.9-10.3-10.9l0,0H734L734,666.1z"/>
</g>
<g id="Türgriff">
	<path class="st4" d="M476.8,846h55c4.1,0,7.4,3.5,7.4,7.9l0,0c0,4.4-3.3,7.9-7.4,7.9h-55c-4.1,0-7.4-3.5-7.4-7.9l0,0
		C469.3,849.5,472.6,846,476.8,846z M537.4,841.1c6.6,1,11.1,7.5,10.2,14.4c-0.9,7-7,11.8-13.6,10.8c-6.1-0.9-10.5-6.6-10.3-13.1
		C524.6,846,530.6,840.7,537.4,841.1L537.4,841.1z"/>
</g>
<g id="Fensterrahmen_waagerecht">
	<rect x="730" y="786.4" class="st2" width="220" height="7.7"/>
</g>
<g id="Fensterrahmen_senkrecht">
	<rect x="833" y="686.5" class="st2" width="6.9" height="206.6"/>
</g>
<g id="Stufe">
	<path class="st5" d="M282.6,1051.4h321.9c3.5,0,6.3,3.5,6.3,7.8l0,0v49.1c0,1.6-1,2.8-2.3,2.8H278c-1.3,0-2.3-1.3-2.3-2.8v-49.1
		c0-4.3,2.8-7.8,6.3-7.8H282.6z"/>
</g>
<g id="Stufe_2">
	<path class="st5" d="M251.6,1102.4h385.5c3.5,0,6.3,3,6.3,6.7v0l0,0v41.9c0,1.3-1,2.4-2.3,2.4h0H247.1c-1.3,0-2.3-1.1-2.3-2.4l0,0
		v-41.9c0-3.7,2.8-6.7,6.3-6.7h0H251.6z"/>
</g>
<g id="Dach_links_3">
	<path class="st6" d="M1233,590.1l-14.5,20.8c-18.2,25.6-52.6,30.8-76.8,11.5l-501-400.5L139,623.1c-24.4,19-58.5,14-76.8-11.5
		l-14.5-20.8c-17.9-25.8-13.2-62.1,10.9-81.5L602.8,67.1c10.5-8.6,23-19.1,35.2-19.1h0.7c13.5,0,27.4,9.1,39.3,18.4L1221.8,505
		C1246.2,524.3,1250.9,564.6,1233,590.1z"/>
</g>
<rect x="767.1" y="1216.8" class="st7" width="1023.5" height="656"/>
<path class="st8" d="M1516.3,1044.9H748.8v156.2h1059.9v-156.2H1516.3z"/>
<path class="st9" d="M1150.9,1107.4c0,17.3-16.4,31.2-36.6,31.2c-20.2,0-36.6-14-36.6-31.2c0-17.3,16.4-31.2,36.6-31.2l0,0
	C1134.5,1076.3,1150.8,1090.2,1150.9,1107.4z"/>
<path class="st9" d="M1260.4,1107.4c0,17.3-16.4,31.2-36.6,31.2c-20.2,0-36.6-14-36.6-31.2c0-17.3,16.4-31.2,36.6-31.2l0,0
	C1244,1076.2,1260.4,1090.2,1260.4,1107.4z"/>
<path class="st9" d="M1370.1,1107.4c0,17.3-16.4,31.2-36.6,31.2c-20.2,0-36.6-14-36.6-31.2c0-17.3,16.4-31.2,36.6-31.2l0,0
	C1353.7,1076.2,1370.1,1090.2,1370.1,1107.4z"/>
<path class="st9" d="M1479.7,1107.4c0,17.3-16.4,31.2-36.6,31.2c-20.2,0-36.6-14-36.6-31.2c0-17.3,16.4-31.2,36.6-31.2
	S1479.7,1090.2,1479.7,1107.4C1479.7,1107.4,1479.7,1107.4,1479.7,1107.4z"/>
<path class="st10" d="M1443.2,966.8c-19.8,0.1-39.1,5.7-54.8,16c9.7,6.4,17.8,14.3,23.9,23.4c25-14.6,59.1-9.1,76.2,12.3
	c17.1,21.4,10.6,50.5-14.4,65.1c-9.2,5.3-20,8.2-31.1,8.2c-10.1,0-18.3,7-18.2,15.6c0,8.6,8.2,15.6,18.2,15.6
	c50.5,0,91.4-35,91.4-78.1c0-43.1-40.9-78.1-91.4-78.1H1443.2z"/>
<path class="st11" d="M1364.4,1006.2c-8.1,11.7-12.5,25.1-12.6,38.7h36.6C1388.3,1029.4,1379.4,1015,1364.4,1006.2z"/>
<path class="st11" d="M1254.7,1006.2c-8.1,11.7-12.4,25.1-12.5,38.7h36.4C1278.7,1029.4,1269.7,1015,1254.7,1006.2z"/>
<path class="st10" d="M1412.4,1006.2c-6.1-9.1-14.2-17-23.9-23.4c-32.3-21.4-77.4-21.4-109.7,0c9.8,6.3,18,14.3,24.1,23.4
	c25-14.6,59.1-9.1,76.2,12.3c17.1,21.4,10.6,50.5-14.4,65.1c-9.2,5.3-20,8.2-31.1,8.2c-10.1,0-18.3,7-18.2,15.6
	c0,8.6,8.2,15.6,18.2,15.6c50.4-0.1,91.3-35,91.4-78.1C1424.9,1031.3,1420.6,1017.9,1412.4,1006.2z"/>
<path class="st11" d="M1145.1,1006.2c-8.1,11.7-12.4,25.1-12.5,38.7h36.6c0-15.5-9-30-23.9-38.7H1145.1z"/>
<path class="st10" d="M1302.8,1006.2c-6.2-9.1-14.3-17-24.1-23.4c-32.3-21.4-77.4-21.4-109.7,0c9.8,6.3,18,14.3,24.1,23.4
	c25-14.6,59.1-9.1,76.2,12.3c17.1,21.4,10.6,50.5-14.4,65.1c-9.2,5.3-20,8.2-31.1,8.2c-10.1,0-18.3,7-18.2,15.6
	c0,8.6,8.2,15.6,18.2,15.6c50.1,0.3,91-34.1,91.4-77C1315.4,1032.1,1311.1,1018.3,1302.8,1006.2z"/>
<path class="st10" d="M1193.1,1006.2c-6.1-9.1-14.3-17-24.1-23.4c-15.7-10.4-35-16-54.8-16c-50.5,0-91.4,35-91.4,78.1h36.6
	c0-25.9,24.5-46.9,54.8-46.9s54.8,21,54.8,46.9c0,25.9-24.5,46.9-54.8,46.9c-10.1,0-18.3,7-18.2,15.6c0,8.6,8.2,15.6,18.2,15.6
	c50.5,0,91.4-35,91.4-78.1C1205.5,1031.3,1201.2,1018,1193.1,1006.2z"/>
<rect x="1278.7" y="1435.5" class="st12" width="255.9" height="218.7"/>
<path class="st13" d="M1552.8,1201.2h-804v687.2h1059.9v-687.2H1552.8z M1297,1232.4h219.3v187.3H1297V1232.4z M1516.3,1638.4H1297
	v-187.3h219.3V1638.4z M1041.1,1451.1h219.2v187.3h-219L1041.1,1451.1z M1041.1,1232.4h219.2v187.3h-219L1041.1,1232.4z
	 M785.2,1232.4h219.2v187.3h-219L785.2,1232.4z M785.2,1451.1h219.2v187.3h-219L785.2,1451.1z M1004.4,1857.3h-219v-187.5h219.2
	L1004.4,1857.3z M1260.2,1857.3h-219v-187.5h219.2L1260.2,1857.3z M1516.1,1857.3H1297v-187.5h219.3L1516.1,1857.3z M1772,1857.3
	h-219.2v-187.5h219.3L1772,1857.3z M1772,1638.6h-219.2v-187.5h219.3L1772,1638.6z M1552.7,1419.9v-187.5H1772v187.3L1552.7,1419.9z
	"/>
<rect x="1297" y="1451.1" class="st14" width="219.3" height="187.4"/>
<path class="st15" d="M1432.5,1544.9l60.2-51.4c7.5-5.7,8.2-15.6,1.5-22.1c-6.7-6.4-18.3-7-25.8-1.3c-0.6,0.4-1.1,0.9-1.6,1.4
	l-60.2,51.4l-60.2-51.4c-7.8-5.5-19.3-4.5-25.7,2.2c-5.5,5.8-5.5,14,0,19.8l60.2,51.4l-60.2,51.4c-7.1,6.1-7.2,16,0,22.1
	c3.4,2.9,8.1,4.6,13,4.6c4.8,0,9.4-1.7,12.8-4.6l60.2-51.4l60.2,51.4c7.1,6.1,18.7,6.1,25.9,0c7.1-6.1,7.1-16,0-22.1L1432.5,1544.9z
	"/>
</svg>
